# xmcd CD Database Entry
#
# Track frame offsets:
# 225
# 16902
# 38120
# 55622
# 77299
# 94980
# 113525
# 135383
# 153937
# 171692
# 196726
# 214062
# 235235
#
# Disc length: 3321 seconds
#
# Revision: 2
# Processed by: cddbd v1.4PL0 Copyright (c) Steve Scherf et al.
# Submitted via: tcd 2.0b
#
DISCID=9b0cf60d
DTITLE=Неизвестный - Неизвестный
DYEAR=1900
DGENRE=
TTITLE0=Трек 1
TTITLE1=Трек 2
TTITLE2=Трек 3
TTITLE3=Трек 4
TTITLE4=Трек 5
TTITLE5=Трек 6
TTITLE6=Трек 7
TTITLE7=Трек 8
TTITLE8=Трек 9
TTITLE9=Трек 10
TTITLE10=Трек 11
TTITLE11=Трек 12
TTITLE12=Трек 13
EXTD=
EXTT0=
EXTT1=
EXTT2=
EXTT3=
EXTT4=
EXTT5=
EXTT6=
EXTT7=
EXTT8=
EXTT9=
EXTT10=
EXTT11=
EXTT12=
PLAYORDER=
